<svg xmlns="http://www.w3.org/2000/svg" fill="none" viewBox="0 0 240 120" role="img" aria-label="Dense token block motif">
  <rect width="240" height="120" rx="2" fill="#05060a"/>
  <g stroke="#38bdf8" stroke-opacity=".25"><path d="M8 8h224v104H8z"/><path d="M40 8v104M80 8v104M120 8v104M160 8v104M200 8v104M8 40h224M8 80h224"/></g>
  <g fill="#ec4899"><rect x="12" y="14" width="14" height="14" rx="2" opacity="0.45"/><rect x="34" y="14" width="14" height="14" rx="2" opacity="0.57"/><rect x="56" y="14" width="14" height="14" rx="2" opacity="0.69"/><rect x="78" y="14" width="14" height="14" rx="2" opacity="0.81"/><rect x="100" y="14" width="14" height="14" rx="2" opacity="0.45"/><rect x="122" y="14" width="14" height="14" rx="2" opacity="0.57"/><rect x="144" y="14" width="14" height="14" rx="2" opacity="0.69"/><rect x="166" y="14" width="14" height="14" rx="2" opacity="0.81"/><rect x="188" y="14" width="14" height="14" rx="2" opacity="0.45"/><rect x="210" y="14" width="14" height="14" rx="2" opacity="0.57"/><rect x="12" y="36" width="14" height="14" rx="2" opacity="0.69"/><rect x="34" y="36" width="14" height="14" rx="2" opacity="0.81"/><rect x="56" y="36" width="14" height="14" rx="2" opacity="0.45"/><rect x="78" y="36" width="14" height="14" rx="2" opacity="0.57"/><rect x="100" y="36" width="14" height="14" rx="2" opacity="0.69"/><rect x="122" y="36" width="14" height="14" rx="2" opacity="0.81"/><rect x="144" y="36" width="14" height="14" rx="2" opacity="0.45"/><rect x="166" y="36" width="14" height="14" rx="2" opacity="0.57"/><rect x="188" y="36" width="14" height="14" rx="2" opacity="0.69"/><rect x="210" y="36" width="14" height="14" rx="2" opacity="0.81"/><rect x="12" y="58" width="14" height="14" rx="2" opacity="0.45"/><rect x="34" y="58" width="14" height="14" rx="2" opacity="0.57"/><rect x="56" y="58" width="14" height="14" rx="2" opacity="0.69"/><rect x="78" y="58" width="14" height="14" rx="2" opacity="0.81"/><rect x="100" y="58" width="14" height="14" rx="2" opacity="0.45"/><rect x="122" y="58" width="14" height="14" rx="2" opacity="0.57"/><rect x="144" y="58" width="14" height="14" rx="2" opacity="0.69"/><rect x="166" y="58" width="14" height="14" rx="2" opacity="0.81"/><rect x="188" y="58" width="14" height="14" rx="2" opacity="0.45"/><rect x="210" y="58" width="14" height="14" rx="2" opacity="0.57"/><rect x="12" y="80" width="14" height="14" rx="2" opacity="0.69"/><rect x="34" y="80" width="14" height="14" rx="2" opacity="0.81"/><rect x="56" y="80" width="14" height="14" rx="2" opacity="0.45"/><rect x="78" y="80" width="14" height="14" rx="2" opacity="0.57"/><rect x="100" y="80" width="14" height="14" rx="2" opacity="0.69"/><rect x="122" y="80" width="14" height="14" rx="2" opacity="0.81"/><rect x="144" y="80" width="14" height="14" rx="2" opacity="0.45"/><rect x="166" y="80" width="14" height="14" rx="2" opacity="0.57"/><rect x="188" y="80" width="14" height="14" rx="2" opacity="0.69"/><rect x="210" y="80" width="14" height="14" rx="2" opacity="0.81"/></g>
  <g fill="#38bdf8"><rect x="22" y="24" width="10" height="10" rx="1" opacity=".65"/><rect x="44" y="24" width="10" height="10" rx="1" opacity=".65"/><rect x="66" y="24" width="10" height="10" rx="1" opacity=".65"/><rect x="88" y="24" width="10" height="10" rx="1" opacity=".65"/><rect x="110" y="24" width="10" height="10" rx="1" opacity=".65"/><rect x="132" y="24" width="10" height="10" rx="1" opacity=".65"/><rect x="154" y="24" width="10" height="10" rx="1" opacity=".65"/><rect x="176" y="24" width="10" height="10" rx="1" opacity=".65"/><rect x="198" y="24" width="10" height="10" rx="1" opacity=".65"/><rect x="22" y="46" width="10" height="10" rx="1" opacity=".65"/><rect x="44" y="46" width="10" height="10" rx="1" opacity=".65"/><rect x="66" y="46" width="10" height="10" rx="1" opacity=".65"/><rect x="88" y="46" width="10" height="10" rx="1" opacity=".65"/><rect x="110" y="46" width="10" height="10" rx="1" opacity=".65"/><rect x="132" y="46" width="10" height="10" rx="1" opacity=".65"/><rect x="154" y="46" width="10" height="10" rx="1" opacity=".65"/><rect x="176" y="46" width="10" height="10" rx="1" opacity=".65"/><rect x="198" y="46" width="10" height="10" rx="1" opacity=".65"/><rect x="22" y="68" width="10" height="10" rx="1" opacity=".65"/><rect x="44" y="68" width="10" height="10" rx="1" opacity=".65"/><rect x="66" y="68" width="10" height="10" rx="1" opacity=".65"/><rect x="88" y="68" width="10" height="10" rx="1" opacity=".65"/><rect x="110" y="68" width="10" height="10" rx="1" opacity=".65"/><rect x="132" y="68" width="10" height="10" rx="1" opacity=".65"/><rect x="154" y="68" width="10" height="10" rx="1" opacity=".65"/><rect x="176" y="68" width="10" height="10" rx="1" opacity=".65"/><rect x="198" y="68" width="10" height="10" rx="1" opacity=".65"/></g>
</svg>
