<svg xmlns="http://www.w3.org/2000/svg" fill="none" viewBox="0 0 1600 900"><g fill="#ec4899"><path d="M80 90l6 16 16 6-16 6-6 16-6-16-16-6 16-6z" opacity=".35"/><path d="M217 163l6 16 16 6-16 6-6 16-6-16-16-6 16-6z" opacity=".35"/><path d="M354 236l6 16 16 6-16 6-6 16-6-16-16-6 16-6z" opacity=".35"/><path d="M491 309l6 16 16 6-16 6-6 16-6-16-16-6 16-6z" opacity=".35"/><path d="M628 382l6 16 16 6-16 6-6 16-6-16-16-6 16-6z" opacity=".35"/><path d="M765 455l6 16 16 6-16 6-6 16-6-16-16-6 16-6z" opacity=".35"/><path d="M902 528l6 16 16 6-16 6-6 16-6-16-16-6 16-6z" opacity=".35"/><path d="M1039 601l6 16 16 6-16 6-6 16-6-16-16-6 16-6z" opacity=".35"/><path d="M1176 674l6 16 16 6-16 6-6 16-6-16-16-6 16-6z" opacity=".35"/><path d="M1313 747l6 16 16 6-16 6-6 16-6-16-16-6 16-6z" opacity=".35"/><path d="M1450 100l6 16 16 6-16 6-6 16-6-16-16-6 16-6z" opacity=".35"/><path d="M1587 173l6 16 16 6-16 6-6 16-6-16-16-6 16-6z" opacity=".35"/></g></svg>
