<svg xmlns="http://www.w3.org/2000/svg" fill="none" viewBox="0 0 1600 900"><g stroke="#38bdf8" stroke-opacity=".22"><path d="M60 0v130h60"/><path d="M180 0v171h77"/><path d="M300 0v212h94"/><path d="M420 0v253h111"/><path d="M540 0v294h128"/><path d="M660 0v335h145"/><path d="M780 0v376h62"/><path d="M900 0v417h79"/><path d="M1020 0v458h96"/><path d="M1140 0v169h113"/><path d="M1260 0v210h130"/><path d="M1380 0v251h147"/></g><g fill="#38bdf8"><circle cx="120" cy="130" r="3" opacity=".5"/><circle cx="240" cy="171" r="3" opacity=".5"/><circle cx="360" cy="212" r="3" opacity=".5"/><circle cx="480" cy="253" r="3" opacity=".5"/><circle cx="600" cy="294" r="3" opacity=".5"/><circle cx="720" cy="335" r="3" opacity=".5"/><circle cx="840" cy="376" r="3" opacity=".5"/><circle cx="960" cy="417" r="3" opacity=".5"/><circle cx="1080" cy="458" r="3" opacity=".5"/><circle cx="1200" cy="169" r="3" opacity=".5"/><circle cx="1320" cy="210" r="3" opacity=".5"/><circle cx="1440" cy="251" r="3" opacity=".5"/></g></svg>
